<svg width="66" height="82" viewBox="0 0 66 82" fill="none" xmlns="http://www.w3.org/2000/svg">
<path d="M41.607 36.2C48.8603 37.0533 54.663 39.4427 59.015 43.368C63.367 47.208 65.543 52.0293 65.543 57.832C65.543 62.2693 64.2203 66.28 61.575 69.864C58.9297 73.448 55.303 76.3067 50.695 78.44C46.087 80.488 40.9243 81.512 35.207 81.512C32.8177 81.512 30.087 81.384 27.015 81.128C25.8203 81.0427 24.327 80.9573 22.535 80.872C20.8283 80.7867 18.9083 80.744 16.775 80.744L7.559 80.872C5.93767 80.9573 3.67633 81 0.775 81C0.604333 81 0.519 80.744 0.519 80.232C0.519 79.72 0.604333 79.464 0.775 79.464C3.24967 79.464 5.08433 79.2507 6.279 78.824C7.559 78.312 8.455 77.4587 8.967 76.264C9.479 75.0693 9.735 73.192 9.735 70.632V11.368C9.735 8.89333 9.479 7.05866 8.967 5.864C8.54033 4.58399 7.687 3.73066 6.407 3.30399C5.21233 2.79199 3.37767 2.536 0.903 2.536C0.732334 2.536 0.647 2.28 0.647 1.768C0.647 1.256 0.732334 1 0.903 1L7.687 1.128C11.4417 1.29866 14.471 1.384 16.775 1.384C19.1643 1.384 21.639 1.256 24.199 1C25.0523 0.914663 26.3323 0.829328 28.039 0.743996C29.7457 0.658663 31.239 0.615997 32.519 0.615997C40.5403 0.615997 46.727 2.024 51.079 4.84C55.5163 7.656 57.735 11.752 57.735 17.128C57.735 21.224 56.3697 24.936 53.639 28.264C50.9083 31.592 46.8977 34.2373 41.607 36.2ZM30.599 3.17599C28.1243 3.17599 26.4177 3.77333 25.479 4.96799C24.5403 6.16266 24.071 8.38133 24.071 11.624V35.944L29.319 36.072C33.927 36.072 37.4683 34.408 39.943 31.08C42.503 27.6667 43.783 23.4 43.783 18.28C43.783 13.416 42.631 9.70399 40.327 7.144C38.1083 4.49866 34.8657 3.17599 30.599 3.17599ZM33.031 78.696C39.0897 78.696 43.527 77.2027 46.343 74.216C49.159 71.2293 50.567 66.792 50.567 60.904C50.567 54.3333 48.9457 49.128 45.703 45.288C42.4603 41.448 37.4683 39.528 30.727 39.528C28.2523 39.528 26.0337 39.6133 24.071 39.784V70.632C24.071 73.6187 24.6257 75.7093 25.735 76.904C26.8443 78.0987 29.2763 78.696 33.031 78.696Z" fill="#ABABAB"/>
</svg>
