<svg width="146" height="146" viewBox="0 0 146 146" fill="none" xmlns="http://www.w3.org/2000/svg">
<rect width="146" height="146" rx="10" fill="#151414"/>
<path d="M81.607 69.2C88.8603 70.0533 94.663 72.4427 99.015 76.368C103.367 80.208 105.543 85.0293 105.543 90.832C105.543 95.2693 104.22 99.28 101.575 102.864C98.9297 106.448 95.303 109.307 90.695 111.44C86.087 113.488 80.9243 114.512 75.207 114.512C72.8177 114.512 70.087 114.384 67.015 114.128C65.8203 114.043 64.327 113.957 62.535 113.872C60.8283 113.787 58.9083 113.744 56.775 113.744L47.559 113.872C45.9377 113.957 43.6763 114 40.775 114C40.6043 114 40.519 113.744 40.519 113.232C40.519 112.72 40.6043 112.464 40.775 112.464C43.2497 112.464 45.0843 112.251 46.279 111.824C47.559 111.312 48.455 110.459 48.967 109.264C49.479 108.069 49.735 106.192 49.735 103.632V44.368C49.735 41.8933 49.479 40.0587 48.967 38.864C48.5403 37.584 47.687 36.7307 46.407 36.304C45.2123 35.792 43.3777 35.536 40.903 35.536C40.7323 35.536 40.647 35.28 40.647 34.768C40.647 34.256 40.7323 34 40.903 34L47.687 34.128C51.4417 34.2987 54.471 34.384 56.775 34.384C59.1643 34.384 61.639 34.256 64.199 34C65.0523 33.9147 66.3323 33.8293 68.039 33.744C69.7457 33.6587 71.239 33.616 72.519 33.616C80.5403 33.616 86.727 35.024 91.079 37.84C95.5163 40.656 97.735 44.752 97.735 50.128C97.735 54.224 96.3697 57.936 93.639 61.264C90.9083 64.592 86.8977 67.2373 81.607 69.2ZM70.599 36.176C68.1243 36.176 66.4177 36.7733 65.479 37.968C64.5403 39.1627 64.071 41.3813 64.071 44.624V68.944L69.319 69.072C73.927 69.072 77.4683 67.408 79.943 64.08C82.503 60.6667 83.783 56.4 83.783 51.28C83.783 46.416 82.631 42.704 80.327 40.144C78.1083 37.4987 74.8657 36.176 70.599 36.176ZM73.031 111.696C79.0897 111.696 83.527 110.203 86.343 107.216C89.159 104.229 90.567 99.792 90.567 93.904C90.567 87.3333 88.9457 82.128 85.703 78.288C82.4603 74.448 77.4683 72.528 70.727 72.528C68.2523 72.528 66.0337 72.6133 64.071 72.784V103.632C64.071 106.619 64.6257 108.709 65.735 109.904C66.8443 111.099 69.2763 111.696 73.031 111.696Z" fill="#DCCA87"/>
</svg>
